# AST/ASF file generated using VICON BodyLanguage
# -----------------------------------------------
:version 1.10
:name VICON
:units
  mass 1.0
  length 0.45
  angle deg
:documentation
   .ast/.asf automatically generated from VICON data using
   VICON BodyBuilder and BodyLanguage model FoxedUp or BRILLIANT.MOD
:root
   order TX TY TZ RX RY RZ
   axis XYZ
   position 0 0 0  
   orientation 0 0 0 
:bonedata
  begin
     id 1 
     name lhipjoint
     direction 0.714689 -0.624256 0.315473 
     length 2.45343 
     axis 0 0 0  XYZ
  end
  begin
     id 2 
     name lfemur
     direction 0.34202 -0.939693 0  
     length 6.59069  
     axis 0 0 20  XYZ
    dof rx ry rz
    limits (-160.0 20.0)
           (-70.0 70.0)
           (-60.0 70.0)
  end
  begin
     id 3 
     name ltibia
     direction 0.34202 -0.939693 0   
     length 6.73476   
     axis 0 0 20   XYZ
    dof rx
    limits (-10.0 170.0)
  end
  begin
     id 4 
     name lfoot
     direction 0.0718085 -0.197292 0.977711   
     length 1.52607   
     axis -90 7.62852e-016 20   XYZ
    dof rx rz
    limits (-45.0 90.0)
           (-70.0 20.0)
  end
  begin
     id 5 
     name ltoes
     direction 1.53553e-011 -4.22024e-011 1   
     length 0.777832   
     axis -90 7.62852e-016 20   XYZ
    dof rx
    limits (-90.0 20.0)
  end
  begin
     id 6 
     name rhipjoint
     direction -0.727419 -0.612432 0.309497   
     length 2.50079  
     axis 0 0 0  XYZ 
  end
  begin
     id 7 
     name rfemur
     direction -0.34202 -0.939693 0   
     length 6.51665   
     axis 0 0 -20   XYZ
    dof rx ry rz
    limits (-160.0 20.0)
           (-70.0 70.0)
           (-70.0 60.0)
  end
  begin
     id 8 
     name rtibia
     direction -0.34202 -0.939693 0   
     length 6.48919   
     axis 0 0 -20   XYZ
    dof rx
    limits (-10.0 170.0)
 end
 begin
     id 9 
     name rfoot
     direction -0.112205 -0.308282 0.944655   
     length 1.68717  
     axis -90 -7.62852e-016 -20   XYZ
    dof rx rz
    limits (-45.0 90.0)
           (-20.0 70.0)
  end
  begin
     id 10 
     name rtoes
     direction -1.53583e-011 -4.21993e-011 1   
     length 0.846859   
     axis -90 -7.62852e-016 -20   XYZ
    dof rx
    limits (-90.0 20.0)
  end
  begin
     id 11 
     name lowerback
     direction -0.00119603 0.996364 -0.0851956   
     length 1.67242   
     axis 0 0 0   XYZ
    dof rx ry rz
    limits (-20.0 45.0)
           (-30.0 30.0)
           (-30.0 30.0)
  end
  begin
     id 12 
     name upperback
     direction -0.00531001 0.998318 0.0577248   
     length 1.64819   
     axis 0 0 0   XYZ
    dof rx ry rz
    limits (-20.0 45.0)
           (-30.0 30.0)
           (-30.0 30.0)
  end
  begin
     id 13 
     name thorax
     direction -0.00653676 0.995132 0.0983291   
     length 1.67429   
     axis 0 0 0   XYZ
    dof rx ry rz
    limits (-20.0 45.0)
           (-30.0 30.0)
           (-30.0 30.0)
  end
  begin
     id 14 
     name lowerneck
     direction 0.0141424 0.999886 0.00525412   
     length 1.59623   
     axis 0 0 0   XYZ
    dof rx ry rz
    limits (-20.0 45.0)
           (-30.0 30.0)
           (-30.0 30.0)
  end
  begin
     id 15 
     name upperneck
     direction -0.0640064 0.987178 -0.146232   
     length 1.59576   
     axis 0 0 0   XYZ
    dof rx ry rz
    limits (-20.0 45.0)
           (-30.0 30.0)
           (-30.0 30.0)
  end
  begin
     id 16
     name head
     direction -0.0222942 0.998496 -0.0500859  
     length 1.60959  
     axis 0 0 0   XYZ
    dof rx ry rz
    limits (-20.0 45.0)
           (-30.0 30.0)
           (-30.0 30.0)
  end
  begin
     id 17 
     name lclavicle
     direction 0.908549 0.392612 0.142806  
     length 2.80649  
     axis 0 0 0   XYZ
    dof ry rz
    limits (-20.0 10.0)
           (0.0 20.0)
  end
  begin
     id 18 
     name lhumerus
     direction 1 -4.48968e-011 1.08832e-028   
     length 4.2884   
     axis -180 -30 -90   XYZ
    dof rx ry rz
    limits (-60.0 90.0)
           (-90.0 90.0)
           (-90.0 90.0)
  end
  begin
     id 19
     name lradius
     direction 1 -4.48952e-011 -3.02642e-028   
     length 3.06552   
     axis -180 -30 -90   XYZ
    dof rx
    limits (-10.0 170.0)
  end
  begin
     id 20
     name lwrist
     direction 1 -4.49014e-011 1.58672e-027   
     length 1.53276   
     axis -1.65735e-015 90 90   XYZ
    dof ry
    limits (-180.0 0.0)
 end
  begin
     id 21 
     name lhand
     direction 1 -4.48928e-011 3.17344e-027   
     length 0.753045   
     axis -2.02492e-015 90 90   XYZ
    dof rx rz
    limits (-90.0 90.0)
           (-45.0 45.0)
  end
  begin
     id 22 
     name lfingers
     direction 1 -4.48958e-011 6.34687e-027   
     length 0.607124   
     axis -4.04985e-015 90 90   XYZ
    dof rx
    limits (0.0 90.0)
  end
  begin
     id 23
     name lthumb
     direction 0.707107 -6.34905e-011 0.707107   
     length 0.871712   
     axis -90 45 2.85299e-015   XYZ
    dof rx rz
    limits (-45.0 45.0)
           (-45.0 45.0)
  end
  begin
     id 24 
     name rclavicle
     direction -0.885098 0.45949 0.0739604   
     length 2.9478  
     axis 0 0 0   XYZ 
    dof ry rz
    limits (-10.0 20.0)
           (-20.0 0.0)
  end
  begin
     id 25 
     name rhumerus
     direction -1 -4.4898e-011 -2.61739e-027  
     length 4.52172   
     axis -180 30 90   XYZ
    dof rx ry rz
    limits (-90.0 60.0)
           (-90.0 90.0)
           (-90.0 90.0)
  end
  begin
     id 26 
     name rradius
     direction -1 -4.48945e-011 9.02552e-028   
     length 2.8914   
     axis -180 30 90   XYZ
    dof rx
    limits (-10.0 170.0)
  end
  begin
     id 27 
     name rwrist
     direction -1 -4.49018e-011 1.58672e-027   
     length 1.4457   
     axis -1.65735e-015 -90 -90   XYZ
    dof ry
    limits (-180.0 0.0)
  end
  begin
     id 28
     name rhand
     direction -1 -4.48825e-011 3.17344e-027   
     length 0.680541   
     axis -2.02492e-015 -90 -90   XYZ
    dof rx rz
    limits (-90.0 90.0)
           (-45.0 45.0)
  end
  begin
     id 29
     name rfingers
     direction -1 -4.49067e-011 6.34687e-027   
     length 0.54867   
     axis -4.04985e-015 -90 -90   XYZ
    dof rx
    limits (0.0 90.0)
  end
  begin
     id 30
     name rthumb
     direction -0.707107 -6.34833e-011 0.707107   
     length 0.787783   
     axis -90 -45 -2.85299e-015   XYZ
    dof rx rz
    limits (-45.0 45.0)
           (-45.0 45.0)
  end
:hierarchy
  begin
    root lhipjoint rhipjoint lowerback
    lhipjoint lfemur
    lfemur ltibia
    ltibia lfoot
    lfoot ltoes
    rhipjoint rfemur
    rfemur rtibia
    rtibia rfoot
    rfoot rtoes
    lowerback upperback
    upperback thorax
    thorax lowerneck lclavicle rclavicle
    lowerneck upperneck
    upperneck head
    lclavicle lhumerus
    lhumerus lradius
    lradius lwrist
    lwrist lhand lthumb
    lhand lfingers
    rclavicle rhumerus
    rhumerus rradius
    rradius rwrist
    rwrist rhand rthumb
    rhand rfingers
  end

#!OML:ASF E:\emotionWalksFemale\Project 1\Capture day 1\Session 1\Female1.ASF
:FULLY-SPECIFIED
:DEGREES
82
root 9.46381 13.7572 -9.2152 20.2275 0.656948 -2.0339
lowerback 16.4183 1.41353 1.1018
upperback -1.96488 2.18083 0.649915
thorax -11.4014 0.98158 -0.477527
lowerneck -12.5842 -3.49389 -4.73277
upperneck -10.6805 -3.87545 4.54882
head -1.08863 -1.78669 2.14001
rclavicle 2.31584e-014 -2.38542e-015
rhumerus 6.25722 -4.43485 -74.4956
rradius 44.1141
rwrist 11.9604
rhand -9.10913 -57.3445
rfingers 7.12502
rthumb 16.8414 -86.6342
lclavicle 2.31584e-014 -2.38542e-015
lhumerus 1.41905 6.91665 79.693
lradius 31.2989
lwrist -16.5719
lhand -9.88307 -50.0173
lfingers 7.12502
lthumb 16.0962 -20.6658
rfemur -46.3196 7.27032 28.8736
rtibia 72.0787
rfoot -28.8436 -24.0236
rtoes -8.93285
lfemur -50.6585 -0.0792615 -21.6088
ltibia 76.7761
lfoot -31.6846 7.36842
ltoes -32.8362
83
root 9.47046 13.8141 -9.15706 20.1124 0.628991 -2.06598
lowerback 16.6302 1.37694 1.19348
upperback -2.32978 2.16039 0.631952
thorax -11.9347 0.958178 -0.555277
lowerneck -12.7085 -3.50775 -4.50532
upperneck -9.92923 -3.94833 4.15698
head -0.835134 -1.831 1.9545
rclavicle 1.49089e-015 3.18055e-015
rhumerus 8.1319 -3.71232 -72.8681
rradius 46.5502
rwrist 9.86186
rhand -8.10437 -59.1544
rfingers 7.12502
rthumb 17.8084 -88.359
lclavicle 1.49089e-015 3.18055e-015
lhumerus 3.79909 6.98291 78.4771
lradius 31.6129
lwrist -15.8448
lhand -10.6216 -50.5966
lfingers 7.12502
lthumb 15.385 -21.189
rfemur -45.5169 7.20657 28.8377
rtibia 71.2046
rfoot -28.8708 -23.4597
rtoes -8.00617
lfemur -49.8169 0.00845955 -21.603
ltibia 75.9557
lfoot -31.5333 7.41998
ltoes -33.07
84
root 9.47796 13.8742 -9.09225 19.9672 0.438077 -2.00873
lowerback 16.1339 1.40311 1.14626
upperback -2.28302 2.17282 0.601996
thorax -11.5907 0.971031 -0.550013
lowerneck -12.9395 -3.54864 -4.42549
upperneck -9.46424 -4.02206 3.88845
head -0.65345 -1.86998 1.83996
rclavicle -1.50082e-014 -1.19271e-015
rhumerus 10.8618 -3.53595 -71.1767
rradius 48.3247
rwrist 7.90118
rhand -7.29466 -59.7815
rfingers 7.12502
rthumb 18.5874 -88.9135
lclavicle -1.50082e-014 -1.19271e-015
lhumerus 6.44056 6.31355 76.9377
lradius 32.3354
lwrist -14.1475
lhand -10.515 -51.1019
lfingers 7.12502
lthumb 15.4876 -21.7022
rfemur -44.5409 7.16703 28.7118
rtibia 70.1292
rfoot -28.5327 -23.267
rtoes -8.13739
lfemur -48.81 0.185602 -21.7533
ltibia 74.8702
lfoot -31.2345 7.65985
ltoes -34.0099
85
root 9.48566 13.9332 -9.02685 19.8013 0.259056 -1.98432
lowerback 15.8201 1.41478 1.15115
upperback -2.36818 2.17976 0.545984
thorax -11.5001 0.973245 -0.608253
lowerneck -13.1391 -3.55022 -4.28144
upperneck -8.74786 -4.05618 3.57807
head -0.401002 -1.89288 1.70111
rclavicle -9.74045e-015 -8.54774e-015
rhumerus 13.4081 -3.64576 -69.4508
rradius 49.7202
rwrist 6.06438
rhand -8.99795 -60.0182
rfingers 7.12502
rthumb 16.9484 -89.2987
lclavicle -9.74045e-015 -8.54774e-015
lhumerus 8.57396 5.7417 75.1309
lradius 33.1346
lwrist -13.1702
lhand -10.6088 -51.6284
lfingers 7.12502
lthumb 15.3973 -22.2218
rfemur -43.4497 7.03169 28.6817
rtibia 68.8495
rfoot -28.0725 -23.4273
rtoes -8.33305
lfemur -47.733 0.435672 -21.8838
ltibia 73.6055
lfoot -30.7616 7.86787
ltoes -34.9598
86
root 9.49245 14.0131 -8.9517 19.6907 0.112202 -1.99203
lowerback 15.4584 1.41551 1.18111
upperback -2.52006 2.17592 0.474391
thorax -11.4549 0.967537 -0.694474
lowerneck -13.4159 -3.51683 -4.05851
upperneck -7.9076 -4.04806 3.33769
head -0.0985932 -1.89654 1.57312
rclavicle -5.36719e-015 -2.78299e-015
rhumerus 15.7844 -3.90438 -67.7213
rradius 51.1992
rwrist 4.50845
rhand -9.09678 -59.4895
rfingers 7.12502
rthumb 16.8533 -88.7782
lclavicle -5.36719e-015 -2.78299e-015
lhumerus 10.4453 4.91843 72.983
lradius 34.1847
lwrist -11.6595
lhand -10.4319 -51.8342
lfingers 7.12502
lthumb 15.5677 -22.4408
rfemur -42.233 6.7635 28.6858
rtibia 67.2681
rfoot -27.7701 -23.6432
rtoes -8.07655
lfemur -46.5075 0.667586 -21.9483
ltibia 72.0959
lfoot -30.5275 7.56599
ltoes -33.9839
87
root 9.49918 14.1086 -8.86021 19.4547 -0.173492 -2.04178
lowerback 14.9697 1.46066 1.15426
upperback -2.56791 2.22114 0.44602
thorax -11.2206 0.993267 -0.707565
lowerneck -13.6445 -3.45665 -4.02974
upperneck -7.12862 -3.97515 3.26176
head 0.184003 -1.86165 1.5385
rclavicle 2.04251e-014 2.38542e-015
rhumerus 18.1301 -4.10799 -65.8763
rradius 52.5654
rwrist 2.93393
rhand -9.35218 -58.7091
rfingers 7.12502
rthumb 16.6074 -88.0185
lclavicle 2.04251e-014 2.38542e-015
lhumerus 12.2301 4.42614 70.8435
lradius 35.1611
lwrist -10.4825
lhand -10.2102 -52.1208
lfingers 7.12502
lthumb 15.7812 -22.7441
rfemur -40.6805 6.47602 28.7282
rtibia 65.4338
rfoot -27.4276 -23.6361
rtoes -8.46102
lfemur -44.9249 1.01499 -21.9851
ltibia 70.361
lfoot -30.563 6.91401
ltoes -31.738
88
root 9.50792 14.2069 -8.76251 19.1184 -0.433132 -2.03926
lowerback 14.5113 1.47908 1.14001
upperback -2.60247 2.23101 0.393614
thorax -10.9882 1.00047 -0.745463
lowerneck -13.6153 -3.36119 -4.01274
upperneck -6.50025 -3.86231 3.15015
head 0.374888 -1.80883 1.5016
rclavicle 1.74931e-014 6.16232e-015
rhumerus 20.3292 -4.49512 -64.1399
rradius 53.7171
rwrist 1.41146
rhand -10.7035 -58.2251
rfingers 7.12502
rthumb 15.3061 -87.6387
lclavicle 1.74931e-014 6.16232e-015
lhumerus 13.7857 4.11386 68.6943
lradius 36.111
lwrist -10.068
lhand -10.6331 -52.4543
lfingers 7.12502
lthumb 15.3739 -23.0459
rfemur -38.9178 6.07417 28.744
rtibia 63.4077
rfoot -26.8155 -23.3739
rtoes -8.98149
lfemur -43.1065 1.36314 -22.0762
ltibia 68.4159
lfoot -31.0572 6.15132
ltoes -32.9567
89
root 9.51927 14.3124 -8.65567 18.7112 -0.625716 -2.03296
lowerback 14.0757 1.4983 1.20848
upperback -2.73154 2.25754 0.32347
thorax -10.8705 1.008 -0.855151
lowerneck -13.5289 -3.30023 -3.97905
upperneck -5.55701 -3.80351 2.96807
head 0.658629 -1.78623 1.43644
rclavicle 2.06736e-014 5.96354e-016
rhumerus 22.1273 -5.1299 -62.5588
rradius 54.7784
rwrist 0.270253
rhand -11.0043 -58.4627
rfingers 7.12502
rthumb 15.0163 -87.8982
lclavicle 2.06736e-014 5.96354e-016
lhumerus 14.745 3.26494 66.3084
lradius 37.2103
lwrist -9.06641
lhand -11.3446 -52.3397
lfingers 7.12502
lthumb 14.6885 -22.88
rfemur -36.9592 5.58517 28.7183
rtibia 61.1991
rfoot -26.176 -22.7362
rtoes -8.15635
lfemur -41.0828 1.63343 -22.1295
ltibia 66.2808
lfoot -29.2624 6.48942
ltoes -30.0974
90
root 9.52891 14.4368 -8.53412 18.1285 -0.900011 -2.09964
lowerback 13.7251 1.56769 1.23653
upperback -2.90399 2.35068 0.299524
thorax -10.853 1.05009 -0.9101
lowerneck -13.5912 -3.24447 -3.98338
upperneck -4.07909 -3.74413 2.77842
head 1.14542 -1.76463 1.37361
rclavicle 9.44227e-016 -2.88238e-015
rhumerus 23.4381 -5.61176 -60.8342
rradius 55.7509
rwrist -0.796678
rhand -10.162 -58.3997
rfingers 7.12502
rthumb 15.8276 -87.7727
lclavicle 9.44227e-016 -2.88238e-015
lhumerus 15.409 2.6956 64.1694
lradius 38.2156
lwrist -8.02939
lhand -11.4876 -52.144
lfingers 7.12502
lthumb 14.5507 -22.6743
rfemur -34.6667 5.13852 28.7096
rtibia 58.7878
rfoot -25.3075 -21.9221
rtoes -7.59865
lfemur -38.7482 1.97526 -22.0883
ltibia 63.9528
lfoot -28.0218 6.47655
ltoes -29.3626
